<svg width="247" height="92" viewBox="0 0 247 92" fill="none" xmlns="http://www.w3.org/2000/svg">
<path fill-rule="evenodd" clip-rule="evenodd" d="M21.0254 38.5689C21.0254 37.5611 22.1059 36.9223 22.9889 37.4079L31.1442 41.8934C32.0595 42.3967 32.0595 43.7119 31.1442 44.2153L22.9889 48.7007C22.1059 49.1864 21.0254 48.5475 21.0254 47.5397V38.5689Z" fill="white"/>
<path d="M41.9862 38.07C41.6363 27.1106 32.7559 18.2665 21.7596 18C21.4763 18 21.2431 18.2165 21.2431 18.4997L21.2264 25.8614C21.2264 26.2278 20.9432 26.511 20.5766 26.5276C9.61363 26.8608 0.766578 35.7548 0.5 46.7475C0.5 47.0306 0.716594 47.2638 0.999833 47.2638L8.34738 47.2805C8.71393 47.2805 8.99717 47.5636 9.01383 47.93C9.36371 58.8894 18.2607 67.7335 29.2404 68C29.5237 68 29.7569 67.7835 29.7569 67.5003L29.7736 60.1386C29.7736 59.7722 30.0568 59.489 30.4234 59.4724C41.3864 59.1226 50.2334 50.2285 50.5 39.2525C50.5 38.9694 50.2834 38.7362 50.0002 38.7362L42.6526 38.7195C42.2861 38.7195 42.0028 38.4364 41.9862 38.07ZM29.0405 59.4224C22.8092 59.056 17.8109 53.9927 17.5776 47.7302C17.561 47.4637 17.3444 47.2472 17.0778 47.2472L9.74692 47.2305C9.36371 47.2305 9.06381 46.9141 9.08047 46.531C9.44702 40.3018 14.512 35.3051 20.7766 35.072C21.0431 35.0553 21.2597 34.8388 21.2597 34.5723L21.2764 27.2272C21.2764 26.8441 21.593 26.5443 21.9762 26.561C28.2074 26.9274 33.2058 31.9907 33.439 38.2532C33.4557 38.5197 33.6723 38.7362 33.9389 38.7362L41.2697 38.7528C41.6529 38.7528 41.9528 39.0693 41.9362 39.4524C41.5696 45.8481 36.2547 50.928 29.7736 50.928L29.7569 58.7562C29.7403 59.1392 29.4237 59.439 29.0405 59.4224Z" fill="url(#paint0_linear_11_1120)"/>
<g filter="url(#filter0_d_11_1120)">
<path d="M86.5138 43.1925L86.8006 48.675C86.3331 49.4612 85.7063 50.1731 84.92 50.8106C84.1338 51.4481 83.1563 51.9687 81.9875 52.3725C80.8188 52.755 79.4375 52.9463 77.8438 52.9463C75.2513 52.925 72.9775 52.4575 71.0225 51.5437C69.0888 50.6087 67.5906 49.2806 66.5281 47.5594C65.4656 45.8381 64.9344 43.7556 64.9344 41.3119C64.9344 38.9319 65.455 36.8812 66.4963 35.16C67.5375 33.4175 69.025 32.0787 70.9588 31.1437C72.9138 30.2087 75.2406 29.7412 77.9394 29.7412C79.6394 29.7412 81.1588 29.9112 82.4975 30.2512C83.8575 30.5912 84.9944 31.0056 85.9081 31.4944L85.94 36.945H85.6531C85.0794 34.8412 84.1444 33.3431 82.8481 32.4506C81.5519 31.5369 80.0325 31.08 78.29 31.08C76.59 31.08 75.1344 31.4944 73.9231 32.3231C72.7119 33.1519 71.7769 34.3206 71.1181 35.8294C70.4594 37.3381 70.13 39.1444 70.13 41.2481C70.13 43.3519 70.4381 45.1687 71.0544 46.6987C71.6919 48.2287 72.5844 49.4187 73.7319 50.2687C74.9006 51.1187 76.2713 51.565 77.8438 51.6075C79.48 51.6075 80.8613 51.3419 81.9875 50.8106C83.1138 50.2794 84.0169 49.3975 84.6969 48.165C85.3981 46.9325 85.9188 45.275 86.2588 43.1925H86.5138ZM100.739 32.9606C102.439 32.9606 103.979 33.1944 105.361 33.6619C106.742 34.1081 107.932 34.7669 108.931 35.6381C109.929 36.5094 110.694 37.5612 111.226 38.7937C111.778 40.0262 112.054 41.4181 112.054 42.9694C112.054 44.4994 111.778 45.8806 111.226 47.1131C110.694 48.3244 109.929 49.3656 108.931 50.2369C107.932 51.1081 106.742 51.7775 105.361 52.245C103.979 52.6913 102.439 52.9144 100.739 52.9144C99.06 52.9144 97.53 52.6913 96.1487 52.245C94.7675 51.7775 93.5775 51.1081 92.5787 50.2369C91.58 49.3656 90.815 48.3244 90.2837 47.1131C89.7525 45.8806 89.4868 44.4994 89.4868 42.9694C89.4868 41.4181 89.7525 40.0262 90.2837 38.7937C90.815 37.5612 91.58 36.5094 92.5787 35.6381C93.5775 34.7669 94.7675 34.1081 96.1487 33.6619C97.53 33.1944 99.06 32.9606 100.739 32.9606ZM100.739 51.6712C102.035 51.6712 103.161 51.3206 104.117 50.6194C105.095 49.8969 105.839 48.8875 106.349 47.5912C106.88 46.295 107.146 44.7544 107.146 42.9694C107.146 41.1631 106.88 39.6119 106.349 38.3156C105.839 36.9981 105.095 35.9887 104.117 35.2875C103.161 34.565 102.035 34.2037 100.739 34.2037C99.4637 34.2037 98.3481 34.565 97.3918 35.2875C96.4356 35.9887 95.6918 36.9981 95.1606 38.3156C94.6293 39.6119 94.3637 41.1631 94.3637 42.9694C94.3637 44.7544 94.6293 46.295 95.1606 47.5912C95.6918 48.8875 96.4356 49.8969 97.3918 50.6194C98.3481 51.3206 99.4637 51.6712 100.739 51.6712ZM135.434 32.9606L135.689 36.2437L127.115 49.8544C127.115 49.8544 127.019 50.035 126.828 50.3963C126.637 50.7362 126.445 51.1506 126.254 51.6394C126.084 52.1281 125.989 52.6169 125.967 53.1056H125.68L124.437 50.4919L135.434 32.9606ZM115.831 50.46V52.5H112.707V52.1812C112.707 52.1812 112.782 52.1812 112.93 52.1812C113.058 52.1812 113.122 52.1812 113.122 52.1812C113.653 52.1812 114.11 52.0325 114.492 51.735C114.896 51.4375 115.14 51.0125 115.225 50.46H115.831ZM117.202 50.9062C117.18 51.14 117.255 51.4162 117.425 51.735C117.595 52.0325 117.892 52.1812 118.317 52.1812H118.764V52.5H116.851L117.042 50.9062H117.202ZM117.712 32.9606H117.967L119.05 36.0206L117.042 52.5H114.97L117.712 32.9606ZM117.967 32.9606L127.402 47.0812L125.68 53.1056L117.202 40.26L117.967 32.9606ZM135.721 32.9606L138.526 52.5H133.649L132.087 40.8656L135.434 32.9606H135.721ZM137.634 50.46H138.239C138.345 51.0125 138.59 51.4375 138.972 51.735C139.376 52.0325 139.822 52.1812 140.311 52.1812C140.311 52.1812 140.385 52.1812 140.534 52.1812C140.683 52.1812 140.757 52.1812 140.757 52.1812V52.5H137.634V50.46ZM133.426 50.9062H133.617L133.809 52.5H131.896V52.1812H132.342C132.81 52.1812 133.118 52.0325 133.267 51.735C133.415 51.4162 133.469 51.14 133.426 50.9062ZM148.384 33.375V52.5H143.794V33.375H148.384ZM143.89 50.4919V52.5H141.563V52.1812C141.563 52.1812 141.627 52.1812 141.754 52.1812C141.882 52.1812 141.956 52.1812 141.977 52.1812C142.466 52.1812 142.891 52.0219 143.252 51.7031C143.614 51.3631 143.794 50.9594 143.794 50.4919H143.89ZM148.321 50.4919H148.384C148.406 50.9594 148.586 51.3631 148.926 51.7031C149.287 52.0219 149.723 52.1812 150.233 52.1812C150.233 52.1812 150.286 52.1812 150.392 52.1812C150.52 52.1812 150.594 52.1812 150.616 52.1812V52.5H148.321V50.4919ZM148.321 35.3831V33.375H150.616L150.584 33.6937C150.584 33.6937 150.531 33.6937 150.424 33.6937C150.318 33.6937 150.254 33.6937 150.233 33.6937C149.723 33.6937 149.287 33.8531 148.926 34.1719C148.586 34.4906 148.406 34.8944 148.384 35.3831H148.321ZM143.89 35.3831H143.794C143.794 34.8944 143.614 34.4906 143.252 34.1719C142.891 33.8531 142.456 33.6937 141.946 33.6937C141.946 33.6937 141.882 33.6937 141.754 33.6937C141.627 33.6937 141.563 33.6937 141.563 33.6937V33.375H143.89V35.3831ZM163.675 40.4512L170.815 50.3644C171.219 50.9594 171.644 51.4162 172.09 51.735C172.536 52.0325 173.057 52.1919 173.652 52.2131V52.5H171.197C170.985 52.5 170.634 52.4894 170.146 52.4681C169.657 52.4469 169.094 52.3725 168.456 52.245C167.84 52.0962 167.213 51.8519 166.576 51.5119C165.938 51.1719 165.375 50.6831 164.886 50.0456C164.78 49.8969 164.599 49.6419 164.344 49.2806C164.089 48.9194 163.781 48.4944 163.42 48.0056C163.08 47.5169 162.719 47.0175 162.336 46.5075C161.975 45.9975 161.635 45.5194 161.316 45.0731C160.997 44.6269 160.742 44.2656 160.551 43.9894C160.36 43.7131 160.264 43.575 160.264 43.575L163.675 40.4512ZM170.432 33.5662L162.113 43.3837L160.264 43.575L167.819 33.5662H170.432ZM172.409 33.3431V33.6619H172.281C171.665 33.6619 171.091 33.7787 170.56 34.0125C170.029 34.2462 169.593 34.565 169.253 34.9687L166.799 34.905C167.032 34.6075 167.075 34.3312 166.926 34.0762C166.777 33.8 166.522 33.6619 166.161 33.6619H165.906V33.3431H172.281H172.409ZM159.34 33.3431V52.5H154.75V33.3431H159.34ZM154.814 50.4919V52.5H152.646V52.1812C152.646 52.1812 152.689 52.1812 152.774 52.1812C152.88 52.1812 152.944 52.1812 152.965 52.1812C153.454 52.1812 153.868 52.0219 154.208 51.7031C154.548 51.3631 154.729 50.9594 154.75 50.4919H154.814ZM159.244 50.4919H159.34C159.34 50.9594 159.51 51.3631 159.85 51.7031C160.19 52.0219 160.604 52.1812 161.093 52.1812C161.114 52.1812 161.178 52.1812 161.284 52.1812C161.391 52.1812 161.444 52.1812 161.444 52.1812V52.5H159.244V50.4919ZM159.244 35.3831V33.3431H161.444V33.6619C161.422 33.6619 161.359 33.6619 161.252 33.6619C161.167 33.6619 161.114 33.6619 161.093 33.6619C160.604 33.6619 160.19 33.8319 159.85 34.1719C159.51 34.4906 159.34 34.8944 159.34 35.3831H159.244ZM154.814 35.3831H154.75C154.729 34.8944 154.548 34.4906 154.208 34.1719C153.868 33.8319 153.454 33.6619 152.965 33.6619C152.965 33.6619 152.912 33.6619 152.806 33.6619C152.699 33.6619 152.636 33.6619 152.614 33.6619V33.3431H154.814V35.3831ZM180.755 33.375V52.5H176.165V33.375H180.755ZM188.214 51.225L188.947 52.5H180.691V51.225H188.214ZM187.13 42.3956V43.6706H180.691V42.3956H187.13ZM188.565 33.375V34.65H180.691V33.375H188.565ZM190.254 46.635L189.043 52.5H183.528L184.516 51.225C185.43 51.225 186.238 51.0444 186.939 50.6831C187.661 50.3006 188.278 49.7694 188.788 49.0894C189.298 48.3881 189.691 47.57 189.967 46.635H190.254ZM187.13 43.6069V46.4119H186.811V46.1569C186.811 45.4556 186.588 44.8712 186.142 44.4037C185.717 43.9362 185.133 43.6919 184.389 43.6706V43.6069H187.13ZM187.13 39.6544V42.4594H184.389V42.3956C185.133 42.3744 185.717 42.13 186.142 41.6625C186.588 41.1737 186.811 40.5787 186.811 39.8775V39.6544H187.13ZM188.565 34.5862V37.965H188.246V37.6781C188.246 36.7431 187.991 36.01 187.481 35.4787C186.992 34.9475 186.28 34.6712 185.345 34.65V34.5862H188.565ZM188.565 32.8969V33.6619L185.218 33.375C185.834 33.375 186.482 33.3219 187.162 33.2156C187.842 33.0881 188.31 32.9819 188.565 32.8969ZM176.229 50.4919L176.388 52.5H174.03V52.1812C174.03 52.1812 174.093 52.1812 174.221 52.1812C174.348 52.1812 174.423 52.1812 174.444 52.1812C174.911 52.1812 175.305 52.0219 175.623 51.7031C175.963 51.3631 176.144 50.9594 176.165 50.4919H176.229ZM176.229 35.3831H176.165C176.144 34.8944 175.963 34.4906 175.623 34.1719C175.305 33.8531 174.911 33.6937 174.444 33.6937C174.423 33.6937 174.348 33.6937 174.221 33.6937C174.093 33.6937 174.03 33.6937 174.03 33.6937V33.375H176.388L176.229 35.3831ZM198.495 33.375H201.938C202.809 33.375 203.659 33.4706 204.488 33.6619C205.316 33.8319 206.06 34.1187 206.719 34.5225C207.378 34.905 207.898 35.4362 208.281 36.1163C208.684 36.775 208.886 37.6037 208.886 38.6025C208.886 39.3462 208.727 40.09 208.408 40.8337C208.111 41.5562 207.633 42.1831 206.974 42.7144C206.336 43.2456 205.497 43.5962 204.456 43.7662C205.072 43.9575 205.656 44.3294 206.209 44.8819C206.783 45.4344 207.229 45.955 207.548 46.4437C207.633 46.6137 207.781 46.89 207.994 47.2725C208.206 47.6337 208.472 48.0587 208.791 48.5475C209.131 49.015 209.481 49.5037 209.843 50.0137C210.268 50.5875 210.639 51.0337 210.958 51.3525C211.277 51.65 211.606 51.8625 211.946 51.99C212.286 52.1175 212.679 52.1812 213.126 52.1812V52.5H210.448C209.301 52.5 208.323 52.415 207.516 52.245C206.729 52.075 206.039 51.7669 205.444 51.3206C204.87 50.8531 204.339 50.2262 203.85 49.44C203.659 49.1637 203.457 48.8344 203.244 48.4519C203.032 48.0481 202.819 47.6444 202.607 47.2406C202.394 46.8369 202.203 46.4437 202.033 46.0612C201.884 45.6787 201.778 45.36 201.714 45.105C201.438 44.425 201.119 43.9362 200.758 43.6387C200.418 43.32 200.099 43.1606 199.802 43.1606V42.8737C199.802 42.8737 199.876 42.8737 200.025 42.8737C200.174 42.8737 200.365 42.8737 200.599 42.8737C201.045 42.8737 201.481 42.7994 201.906 42.6506C202.352 42.4806 202.756 42.1725 203.117 41.7262C203.478 41.2587 203.744 40.5787 203.914 39.6862C203.956 39.5587 203.988 39.3781 204.009 39.1444C204.052 38.9106 204.063 38.645 204.041 38.3475C203.999 37.5612 203.85 36.9344 203.595 36.4669C203.361 35.9781 203.064 35.6169 202.703 35.3831C202.341 35.1281 201.969 34.9581 201.587 34.8731C201.226 34.7669 200.907 34.7137 200.631 34.7137C200.227 34.6925 199.855 34.6925 199.515 34.7137C199.196 34.7137 198.952 34.7031 198.782 34.6819C198.761 34.6819 198.729 34.5756 198.686 34.3631C198.644 34.1294 198.601 33.9062 198.559 33.6937C198.516 33.4812 198.495 33.375 198.495 33.375ZM198.814 33.375V52.5H194.192V33.375H198.814ZM194.288 50.4919L194.415 52.5H192.12V52.1812C192.141 52.1812 192.194 52.1812 192.279 52.1812C192.386 52.1812 192.46 52.1812 192.503 52.1812C192.97 52.1812 193.363 52.0219 193.682 51.7031C194.022 51.3631 194.203 50.9594 194.224 50.4919H194.288ZM194.288 35.3512H194.224C194.203 34.8625 194.022 34.4694 193.682 34.1719C193.363 33.8531 192.981 33.6937 192.534 33.6937C192.471 33.6937 192.386 33.6937 192.279 33.6937C192.194 33.6937 192.141 33.6937 192.12 33.6937V33.375H194.415L194.288 35.3512ZM198.75 50.4919H198.814C198.814 51.0231 198.994 51.4375 199.356 51.735C199.738 52.0325 200.142 52.1812 200.567 52.1812C200.567 52.1812 200.609 52.1812 200.694 52.1812C200.779 52.1812 200.843 52.1812 200.886 52.1812V52.5H198.591L198.75 50.4919Z" fill="white"/>
</g>
<defs>
<filter id="filter0_d_11_1120" x="31.1774" y="0.841251" width="215.706" height="90.8787" filterUnits="userSpaceOnUse" color-interpolation-filters="sRGB">
<feFlood flood-opacity="0" result="BackgroundImageFix"/>
<feColorMatrix in="SourceAlpha" type="matrix" values="0 0 0 0 0 0 0 0 0 0 0 0 0 0 0 0 0 0 127 0" result="hardAlpha"/>
<feOffset dy="4.85714"/>
<feGaussianBlur stdDeviation="16.8786"/>
<feComposite in2="hardAlpha" operator="out"/>
<feColorMatrix type="matrix" values="0 0 0 0 1 0 0 0 0 1 0 0 0 0 1 0 0 0 0.58 0"/>
<feBlend mode="normal" in2="BackgroundImageFix" result="effect1_dropShadow_11_1120"/>
<feBlend mode="normal" in="SourceGraphic" in2="effect1_dropShadow_11_1120" result="shape"/>
</filter>
<linearGradient id="paint0_linear_11_1120" x1="18" y1="20.5" x2="35" y2="69.5" gradientUnits="userSpaceOnUse">
<stop stop-color="#6500E6"/>
<stop offset="1" stop-color="#FF1C1C"/>
<stop offset="1" stop-color="#E60000" stop-opacity="0"/>
</linearGradient>
</defs>
</svg>
