<svg width="12" height="12" viewBox="0 0 12 12" fill="none" xmlns="http://www.w3.org/2000/svg">
<g clip-path="url(#clip0_5424_2136)">
<path d="M2.99979 10.0002L7.43431 5.56569C7.63232 5.36768 7.73133 5.26867 7.84549 5.23158C7.94591 5.19895 8.05409 5.19895 8.15451 5.23158C8.26867 5.26867 8.36768 5.36768 8.56569 5.56569L10.7026 7.70263M5.25 4.25C5.25 4.80228 4.80228 5.25 4.25 5.25C3.69772 5.25 3.25 4.80228 3.25 4.25C3.25 3.69772 3.69772 3.25 4.25 3.25C4.80228 3.25 5.25 3.69772 5.25 4.25ZM11 6C11 8.76142 8.76142 11 6 11C3.23858 11 1 8.76142 1 6C1 3.23858 3.23858 1 6 1C8.76142 1 11 3.23858 11 6Z" stroke="white" stroke-width="2" stroke-linecap="round" stroke-linejoin="round"/>
</g>
<defs>
<clipPath id="clip0_5424_2136">
<rect width="12" height="12" fill="white"/>
</clipPath>
</defs>
</svg>
